<svg t="1684770604332" class="icon" viewBox="0 0 1024 1024" version="1.1" xmlns="http://www.w3.org/2000/svg" p-id="1265" width="64" height="64"><path d="M512 512m-512 0a512 512 0 1 0 1024 0 512 512 0 1 0-1024 0Z" fill="#36EAC4" p-id="1266"></path><path d="M324.408781 655.018925C505.290126 655.018925 651.918244 508.387706 651.918244 327.509463c0-152.138029-103.733293-280.047334-244.329811-316.853972C205.813923 52.463528 47.497011 213.017581 8.987325 415.981977 47.587706 553.880127 174.183098 655.018925 324.408781 655.018925z" fill="#FFFFFF" fill-opacity=".2" p-id="1267"></path><path d="M512 1024c282.766631 0 512-229.233369 512-512 0-31.765705-2.891385-62.853911-8.433853-93.018889C928.057169 336.0999 809.874701 285.26268 679.824375 285.26268c-269.711213 0-488.357305 218.645317-488.357305 488.357305 0 54.959576 9.084221 107.802937 25.822474 157.10377C300.626556 989.489417 402.283167 1024 512 1024z" fill="#FFFFFF" fill-opacity=".15" p-id="1268"></path><path d="M732.535958 756.566238c36.389596 0 65.889478-29.499882 65.889477-65.889478 0 36.389596 29.502983 65.889478 65.889478 65.889478-17.053747 0-65.889478 29.502983-65.889478 65.889477 0-36.386495-29.499882-65.889478-65.889477-65.889477zM159.685087 247.279334c25.686819 0 46.51022-20.8234 46.51022-46.51022 0 25.686819 20.8234 46.51022 46.510219 46.51022-12.03607 0-46.51022 20.8234-46.510219 46.510219 0-25.686819-20.8234-46.51022-46.51022-46.510219z" fill="#FFFFFF" fill-opacity=".5" p-id="1269"></path><path d="M206.195307 333.32324c8.562531 0 15.503407-6.940875 15.503406-15.503407 0 8.562531 6.940875 15.503407 15.503407 15.503407-4.012282 0-15.503407 6.940875-15.503407 15.503406 0-8.562531-6.940875-15.503407-15.503406-15.503406z" fill="#FFFFFF" fill-opacity=".3" p-id="1270"></path><path d="M317.044663 270.534444c0-8.562531 6.940875-15.503407 15.503407-15.503407h358.90386c8.562531 0 15.503407 6.940875 15.503407 15.503407v484.365953c0 13.041466-15.699525 19.648242-25.024824 10.531464L522.838431 609.883858c-6.025399-5.890519-15.651464-5.890519-21.676862 0L342.069487 765.431861C332.744188 774.548639 317.044663 767.941862 317.044663 754.900397V270.534444z" fill="#FFFFFF" p-id="1271"></path><path d="M543.394398 348.826646m15.503407 0l85.268735 0q15.503407 0 15.503407 15.503407l0 0q0 15.503407-15.503407 15.503407l-85.268735 0q-15.503407 0-15.503407-15.503407l0 0q0-15.503407 15.503407-15.503407Z" fill="#54EDCD" p-id="1272"></path><path d="M586.028766 422.467827m0-15.503406l0-85.268736q0-15.503407 15.503407-15.503406l0 0q15.503407 0 15.503406 15.503406l0 85.268736q0 15.503407-15.503406 15.503406l0 0q-15.503407 0-15.503407-15.503406Z" fill="#54EDCD" p-id="1273"></path></svg>